<?xml version="1.0" encoding="UTF-8" standalone="no"?>
<svg
   version="1.1"
   viewBox="0 0 551.88 870.22998"
   width="551.88"
   height="870.22998"
   id="svg13"
   sodipodi:docname="patch.svg"
   inkscape:export-filename="patch.png"
   inkscape:export-xdpi="96"
   inkscape:export-ydpi="96"
   xmlns:inkscape="http://www.inkscape.org/namespaces/inkscape"
   xmlns:sodipodi="http://sodipodi.sourceforge.net/DTD/sodipodi-0.dtd"
   xmlns="http://www.w3.org/2000/svg"
   xmlns:svg="http://www.w3.org/2000/svg">
  <sodipodi:namedview
     id="namedview13"
     pagecolor="#b1b1b1"
     bordercolor="#000000"
     borderopacity="0"
     inkscape:showpageshadow="2"
     inkscape:pageopacity="0.0"
     inkscape:pagecheckerboard="0"
     inkscape:deskcolor="#535353" />
  <!-- svg-source:excalidraw -->
  <defs
     id="defs1">
    <style
       class="style-fonts"
       id="style1" />
  </defs>
  <g
     stroke-linecap="round"
     transform="translate(83.515388,242.26)"
     id="g1">
    <path
       d="m 386,193 c 0,4.39 -0.15,8.79 -0.45,13.17 -0.3,4.38 -0.75,8.76 -1.35,13.11 -0.6,4.35 -1.34,8.69 -2.24,12.99 -0.89,4.3 -1.93,8.57 -3.12,12.8 -1.18,4.23 -2.51,8.42 -3.98,12.56 -1.47,4.14 -3.09,8.23 -4.84,12.26 -1.75,4.03 -3.64,8 -5.66,11.9 -2.02,3.9 -4.18,7.74 -6.46,11.49 -2.28,3.75 -4.69,7.43 -7.22,11.02 -2.54,3.59 -5.2,7.09 -7.97,10.5 -2.77,3.41 -5.66,6.72 -8.66,9.93 -3,3.21 -6.11,6.32 -9.32,9.32 -3.21,3 -6.52,5.89 -9.93,8.66 -3.41,2.77 -6.91,5.43 -10.5,7.97 -3.59,2.53 -7.27,4.94 -11.02,7.22 -3.75,2.28 -7.59,4.44 -11.49,6.46 -3.9,2.02 -7.87,3.91 -11.9,5.66 -4.03,1.75 -8.12,3.37 -12.26,4.84 -4.14,1.47 -8.33,2.8 -12.56,3.98 -4.23,1.19 -8.5,2.23 -12.8,3.12 -4.3,0.9 -8.64,1.64 -12.99,2.24 -4.35,0.6 -8.73,1.05 -13.11,1.35 -4.38,0.3 -8.78,0.45 -13.17,0.45 -4.39,0 -8.79,-0.15 -13.17,-0.45 -4.38,-0.3 -8.76,-0.75 -13.11,-1.35 -4.35,-0.6 -8.69,-1.34 -12.99,-2.24 -4.3,-0.89 -8.57,-1.93 -12.8,-3.12 -4.23,-1.18 -8.42,-2.51 -12.56,-3.98 -4.14,-1.47 -8.23,-3.09 -12.26,-4.84 -4.03,-1.75 -8,-3.64 -11.9,-5.66 -3.9,-2.02 -7.74,-4.18 -11.49,-6.46 -3.75,-2.28 -7.43,-4.69 -11.02,-7.22 -3.59,-2.54 -7.09,-5.2 -10.5,-7.97 -3.41,-2.77 -6.72,-5.66 -9.93,-8.66 -3.21,-3 -6.32,-6.11 -9.32,-9.32 -3,-3.21 -5.89,-6.52 -8.66,-9.93 -2.77,-3.41 -5.43,-6.91 -7.97,-10.5 -2.53,-3.59 -4.94,-7.27 -7.22,-11.02 -2.28,-3.75 -4.44,-7.59 -6.46,-11.49 -2.02,-3.9 -3.91,-7.87 -5.66,-11.9 -1.75,-4.03 -3.37,-8.12 -4.84,-12.26 C 9.67,253.49 8.34,249.3 7.16,245.07 5.97,240.84 4.93,236.57 4.04,232.27 3.14,227.97 2.4,223.63 1.8,219.28 1.2,214.93 0.75,210.55 0.45,206.17 0.15,201.79 0,197.39 0,193 c 0,-4.39 0.15,-8.79 0.45,-13.17 0.3,-4.38 0.75,-8.76 1.35,-13.11 0.6,-4.35 1.34,-8.69 2.24,-12.99 0.89,-4.3 1.93,-8.57 3.12,-12.8 1.18,-4.23 2.51,-8.42 3.98,-12.56 1.47,-4.14 3.09,-8.23 4.84,-12.26 1.75,-4.03 3.64,-8 5.66,-11.9 2.02,-3.9 4.18,-7.74 6.46,-11.49 2.28,-3.75 4.69,-7.43 7.22,-11.02 2.54,-3.59 5.2,-7.09 7.97,-10.5 2.77,-3.41 5.66,-6.72 8.66,-9.93 3,-3.21 6.11,-6.32 9.32,-9.32 3.21,-3 6.52,-5.89 9.93,-8.66 3.41,-2.77 6.91,-5.43 10.5,-7.97 3.59,-2.53 7.27,-4.94 11.02,-7.22 3.75,-2.28 7.59,-4.44 11.49,-6.46 3.9,-2.02 7.87,-3.91 11.9,-5.66 4.03,-1.75 8.12,-3.37 12.26,-4.84 4.14,-1.47 8.33,-2.8 12.56,-3.98 4.23,-1.19 8.5,-2.23 12.8,-3.12 4.3,-0.9 8.64,-1.64 12.99,-2.24 4.35,-0.6 8.73,-1.05 13.11,-1.35 C 184.21,0.15 188.61,0 193,0 c 4.39,0 8.79,0.15 13.17,0.45 4.38,0.3 8.76,0.75 13.11,1.35 4.35,0.6 8.69,1.34 12.99,2.24 4.3,0.89 8.57,1.93 12.8,3.12 4.23,1.18 8.42,2.51 12.56,3.98 4.14,1.47 8.23,3.09 12.26,4.84 4.03,1.75 8,3.64 11.9,5.66 3.9,2.02 7.74,4.18 11.49,6.46 3.75,2.28 7.43,4.69 11.02,7.22 3.59,2.54 7.09,5.2 10.5,7.97 3.41,2.77 6.72,5.66 9.93,8.66 3.21,3 6.32,6.11 9.32,9.32 3,3.21 5.89,6.52 8.66,9.93 2.77,3.41 5.43,6.91 7.97,10.5 2.53,3.59 4.94,7.27 7.22,11.02 2.28,3.75 4.44,7.59 6.46,11.49 2.02,3.9 3.91,7.87 5.66,11.9 1.75,4.03 3.37,8.12 4.84,12.26 1.47,4.14 2.8,8.33 3.98,12.56 1.19,4.23 2.23,8.5 3.12,12.8 0.9,4.3 1.64,8.64 2.24,12.99 0.6,4.35 1.05,8.73 1.35,13.11 0.3,4.38 0.45,8.78 0.45,13.17"
       stroke="#1e1e1e"
       stroke-width="2"
       fill="none"
       id="path1" />
  </g>
  <g
     stroke-linecap="round"
     transform="translate(226.94939,608.35624)"
     id="g3">
    <path
       d="M 0,0 H 100.73 V 40.29 H 0"
       stroke="none"
       stroke-width="0"
       fill="#ffffff"
       id="path2" />
    <path
       d="M 0,0 C 25.84,0 51.69,0 100.73,0 M 0,0 c 24.56,0 49.13,0 100.73,0 m 0,0 c 0,8.27 0,16.54 0,40.29 m 0,-40.29 c 0,10.16 0,20.32 0,40.29 m 0,0 c -29.94,0 -59.89,0 -100.73,0 m 100.73,0 c -26.2,0 -52.4,0 -100.73,0 m 0,0 C 0,24.9 0,9.51 0,0 M 0,40.29 C 0,28.72 0,17.16 0,0"
       stroke="transparent"
       stroke-width="1"
       fill="none"
       id="path3" />
  </g>
  <g
     stroke-linecap="round"
     transform="translate(245.62,470.08904)"
     id="g6">
    <path
       d="M 0,0 C 12.76,0 25.53,0 60,0 M 0,0 c 12.04,0 24.09,0 60,0 m 0,0 c 0,79.53 0,159.06 0,326 M 60,0 c 0,73.56 0,147.12 0,326 m 0,0 c -14.08,0 -28.17,0 -60,0 m 60,0 c -20.83,0 -41.66,0 -60,0 m 0,0 C 0,244.89 0,163.78 0,0 M 0,326 C 0,248.12 0,170.24 0,0"
       stroke="#1e1e1e"
       stroke-width="2"
       fill="none"
       id="path6" />
  </g>
  <g
     stroke-linecap="round"
     id="g8"
     transform="translate(-9.3800001,-8.7399998)">
    <g
       transform="translate(336.30424,630.31185)"
       id="g7">
      <path
         d="M 0,0 C 0,-54.88 0,-109.75 0,-152.5 M 0,0 c 0,-41.1 0,-82.19 0,-152.5"
         stroke="#1e1e1e"
         stroke-width="2"
         fill="none"
         id="path7" />
    </g>
  </g>
  <mask
     id="mask8" />
  <g
     stroke-linecap="round"
     id="g10"
     transform="translate(-9.3800001,-8.7399998)">
    <g
       transform="translate(235.48654,630.31185)"
       id="g9">
      <path
         d="M 0,0 C 0,-34.45 0,-68.91 0,-152.5 M 0,0 c 0,-35.4 0,-70.8 0,-152.5"
         stroke="#1e1e1e"
         stroke-width="2"
         fill="none"
         id="path8" />
    </g>
  </g>
  <mask
     id="mask10" />
  <g
     stroke-linecap="round"
     id="g12"
     transform="translate(-9.3800001,-8.7399998)">
    <g
       transform="translate(235.1227,477.93056)"
       id="g11">
      <path
         d="M 0,0 C 25.16,0 50.32,0 100.46,0 M 0,0 c 34.16,0 68.32,0 100.46,0"
         stroke="#1e1e1e"
         stroke-width="2"
         fill="none"
         id="path10" />
    </g>
  </g>
  <mask
     id="mask12" />
  <g
     stroke-opacity="0.2"
     fill-opacity="0.2"
     stroke-linecap="round"
     transform="translate(0.61999989,1.2600002)"
     id="g13">
    <path
       d="M 0,0 C 0,0 0,0 0,0 M 0,0 C 0,0 0,0 0,0 M -0.26,6.4 C 1.04,4.9 2.35,3.39 4.99,0.36 M -0.26,6.4 C 1.33,4.57 2.92,2.74 4.99,0.36 M 0.13,12.04 C 2.89,8.87 5.65,5.7 10.63,-0.03 M 0.13,12.04 C 3.92,7.69 7.71,3.33 10.63,-0.03 M -0.13,18.44 C 4.58,13.03 9.28,7.62 15.62,0.33 M -0.13,18.44 C 4.2,13.46 8.52,8.48 15.62,0.33 M 0.27,24.08 c 8.26,-9.5 16.51,-19 20.99,-24.15 M 0.27,24.08 C 5.24,18.36 10.21,12.64 21.26,-0.07 M 0,30.48 C 9.63,19.41 19.25,8.34 26.25,0.29 M 0,30.48 C 8.87,20.29 17.73,10.09 26.25,0.29 M -0.26,36.88 C 10.41,24.61 21.07,12.34 31.89,-0.1 M -0.26,36.88 C 9.62,25.51 19.51,14.14 31.89,-0.1 M 0.14,42.52 C 11.34,29.64 22.54,16.75 36.88,0.26 M 0.14,42.52 C 13.24,27.45 26.34,12.38 36.88,0.26 m -37,48.66 C 13.26,33.53 26.64,18.13 42.52,-0.14 M -0.12,48.92 C 13.37,33.4 26.86,17.88 42.52,-0.14 M 0.27,54.56 C 10.09,43.26 19.92,31.96 47.51,0.22 M 0.27,54.56 C 13.47,39.37 26.68,24.18 47.51,0.22 M 0.01,60.96 C 19.54,38.49 39.07,16.02 53.15,-0.17 M 0.01,60.96 C 18.11,40.13 36.22,19.3 53.15,-0.17 M -0.25,67.36 C 18.01,46.34 36.28,25.33 58.14,0.19 M -0.25,67.36 C 13.6,51.42 27.46,35.48 58.14,0.19 M 0.14,73 C 13.73,57.37 27.32,41.73 63.78,-0.21 M 0.14,73 C 18.6,51.77 37.06,30.53 63.78,-0.21 M -0.12,79.4 C 20.44,55.75 40.99,32.1 68.77,0.15 M -0.12,79.4 C 16.66,60.1 33.43,40.8 68.77,0.15 M 0.28,85.04 C 27.28,53.97 54.29,22.9 74.41,-0.24 M 0.28,85.04 C 15.62,67.39 30.96,49.75 74.41,-0.24 M 0.01,91.44 C 30.64,56.2 61.27,20.97 79.4,0.12 M 0.01,91.44 C 23.4,64.54 46.78,37.64 79.4,0.12 M -0.25,97.84 C 18.91,75.8 38.06,53.77 85.04,-0.28 M -0.25,97.84 C 31.02,61.86 62.29,25.89 85.04,-0.28 M 0.15,103.48 C 21.59,78.82 43.02,54.16 90.03,0.08 M 0.15,103.48 C 24.39,75.59 48.63,47.71 90.03,0.08 M -0.11,109.88 C 37.37,66.76 74.86,23.64 95.67,-0.31 M -0.11,109.88 C 36.03,68.3 72.17,26.72 95.67,-0.31 M 0.28,115.52 C 26.57,85.27 52.87,55.03 100.66,0.05 M 0.28,115.52 C 23.46,88.86 46.64,62.19 100.66,0.05 M 0.02,121.92 C 37.61,78.67 75.2,35.43 106.3,-0.34 M 0.02,121.92 C 29.78,87.69 59.53,53.46 106.3,-0.34 M -0.24,128.32 C 33.65,89.33 67.54,50.34 111.29,0.02 M -0.24,128.32 C 35.79,86.87 71.82,45.41 111.29,0.02 M 0.15,133.96 C 45.79,81.46 91.43,28.96 116.27,0.38 M 0.15,133.96 C 28.98,100.79 57.81,67.63 116.27,0.38 M -0.11,140.36 C 43.12,90.63 86.34,40.91 121.92,-0.02 M -0.11,140.36 C 33.31,101.92 66.72,63.47 121.92,-0.02 M 0.29,146 C 36.09,104.82 71.89,63.63 126.91,0.34 M 0.29,146 C 36.86,103.93 73.43,61.86 126.91,0.34 M 0.02,152.4 C 32.51,115.03 64.99,77.67 132.55,-0.05 M 0.02,152.4 C 38.95,107.62 77.87,62.85 132.55,-0.05 M -0.24,158.8 C 53.3,97.2 106.85,35.61 137.54,0.31 M -0.24,158.8 C 46.74,104.75 93.72,50.71 137.54,0.31 M 0.16,164.44 C 50.33,106.73 100.49,49.01 143.18,-0.09 M 0.16,164.44 C 53.92,102.59 107.69,40.74 143.18,-0.09 M -0.1,170.84 C 54.54,107.98 109.18,45.12 148.17,0.27 M -0.1,170.84 C 55.79,106.54 111.68,42.24 148.17,0.27 M 0.29,176.48 C 44.46,125.66 88.64,74.85 153.81,-0.12 M 0.29,176.48 C 61.18,106.44 122.06,36.4 153.81,-0.12 M 0.03,182.88 C 43.3,133.1 86.57,83.32 158.8,0.24 M 0.03,182.88 C 47.94,127.76 95.85,72.64 158.8,0.24 M -0.23,189.27 C 35.12,148.61 70.47,107.94 164.44,-0.16 M -0.23,189.27 C 35.12,148.61 70.47,107.95 164.44,-0.16 M 0.16,194.92 C 41.28,147.62 82.4,100.32 169.43,0.2 M 0.16,194.92 C 43.02,145.61 85.88,96.31 169.43,0.2 M -0.1,201.32 C 58.13,134.33 116.36,67.35 175.07,-0.19 M -0.1,201.32 C 65.03,126.39 130.17,51.46 175.07,-0.19 M 0.3,206.96 C 38.78,162.69 77.27,118.41 180.06,0.17 M 0.3,206.96 C 54.57,144.52 108.85,82.09 180.06,0.17 M 0.03,213.36 C 71.33,131.34 142.63,49.32 185.7,-0.23 M 0.03,213.36 C 72.93,129.5 145.83,45.64 185.7,-0.23 M -0.23,219.75 C 40.38,173.04 81,126.32 190.69,0.13 M -0.23,219.75 C 66.85,142.59 133.93,65.43 190.69,0.13 M 0.17,225.4 C 69.74,145.36 139.32,65.32 196.33,-0.26 M 0.17,225.4 C 55.96,161.22 111.75,97.03 196.33,-0.26 M -0.09,231.8 C 51.79,172.11 103.68,112.42 201.32,0.1 M -0.09,231.8 C 47.79,176.71 95.67,121.63 201.32,0.1 M 0.3,237.44 C 77.15,149.03 154,60.63 206.96,-0.3 M 0.3,237.44 C 49.35,181.01 98.4,124.58 206.96,-0.3 M 0.04,243.84 C 55.09,180.5 110.14,117.17 211.95,0.06 M 0.04,243.84 C 48.81,187.73 97.58,131.63 211.95,0.06 M -0.22,250.23 C 44.46,198.83 89.15,147.43 217.59,-0.33 M -0.22,250.23 C 70.44,168.95 141.1,87.66 217.59,-0.33 M 0.17,255.88 C 71.89,173.38 143.6,90.88 222.58,0.03 M 0.17,255.88 C 73.67,171.33 147.17,86.77 222.58,0.03 M -0.09,262.27 C 83.55,166.06 167.19,69.85 228.22,-0.36 M -0.09,262.27 C 45.89,209.39 91.86,156.5 228.22,-0.36 M 0.3,267.92 C 56.43,203.36 112.55,138.8 233.21,0 M 0.3,267.92 C 87.27,167.87 174.24,67.83 233.21,0 M 0.04,274.32 C 49.91,216.95 99.78,159.58 238.19,0.36 M 0.04,274.32 C 49.3,217.65 98.56,160.98 238.19,0.36 M -0.22,280.71 C 49.31,223.74 98.83,166.77 243.84,-0.04 M -0.22,280.71 C 79.45,189.06 159.13,97.41 243.84,-0.04 M 0.18,286.36 C 57.49,220.43 114.8,154.5 248.82,0.32 M 0.18,286.36 C 65.38,211.35 130.58,136.35 248.82,0.32 M -0.08,292.75 C 73.24,208.4 146.57,124.04 254.47,-0.07 M -0.08,292.75 C 99.17,178.57 198.42,64.4 254.47,-0.07 M 0.31,298.4 C 95.67,188.69 191.04,78.99 259.45,0.29 M 0.31,298.4 C 96.65,187.58 192.98,76.75 259.45,0.29 M 0.05,304.8 C 97.68,192.48 195.32,80.16 265.1,-0.11 M 0.05,304.8 C 78.75,214.26 157.46,123.72 265.1,-0.11 M -0.21,311.19 C 81.54,217.15 163.28,123.11 270.08,0.25 M -0.21,311.19 C 86.94,210.93 174.1,110.67 270.08,0.25 M 0.18,316.84 C 57.48,250.92 114.78,185 275.73,-0.14 M 0.18,316.84 C 59,249.17 117.82,181.51 275.73,-0.14 M -0.08,323.23 C 100.04,208.06 200.15,92.89 280.71,0.22 M -0.08,323.23 C 107.79,199.14 215.66,75.05 280.71,0.22 M 0.31,328.88 C 104.19,209.39 208.06,89.89 286.36,-0.18 M 0.31,328.88 C 68.46,250.48 136.61,172.08 286.36,-0.18 M 0.05,335.27 C 115.18,202.83 230.32,70.39 291.34,0.18 M 0.05,335.27 C 61.1,265.05 122.15,194.82 291.34,0.18 M -0.21,341.67 C 83.73,245.11 167.67,148.55 296.99,-0.21 M -0.21,341.67 C 89.8,238.13 179.8,134.6 296.99,-0.21 M 0.19,347.32 C 98.46,234.27 196.73,121.22 301.97,0.15 M 0.19,347.32 C 101.03,231.31 201.87,115.3 301.97,0.15 M -0.08,353.71 C 63.48,280.6 127.03,207.49 307.62,-0.25 M -0.08,353.71 C 83.51,257.56 167.09,161.41 307.62,-0.25 M 0.32,359.36 C 124.3,216.73 248.28,74.11 312.6,0.11 M 0.32,359.36 C 86.56,260.15 172.8,160.93 312.6,0.11 M 0.06,365.75 C 85.45,267.52 170.84,169.3 318.25,-0.28 M 0.06,365.75 C 77.01,277.23 153.96,188.71 318.25,-0.28 M -0.2,372.15 C 97.1,260.22 194.4,148.28 323.23,0.08 M -0.2,372.15 C 76.36,284.07 152.93,195.99 323.23,0.08 M 0.19,377.79 C 129.35,229.22 258.5,80.64 328.88,-0.31 M 0.19,377.79 C 80.2,285.75 160.22,193.71 328.88,-0.31 M -0.07,384.19 C 90.36,280.16 180.79,176.13 333.86,0.05 M -0.07,384.19 C 133.42,230.63 266.91,77.07 333.86,0.05 M 0.32,389.84 C 135.17,234.71 270.02,79.59 339.51,-0.35 M 0.32,389.84 C 115.39,257.47 230.45,125.1 339.51,-0.35 M 0.06,396.23 C 131.9,244.58 263.73,92.92 344.49,0.01 M 0.06,396.23 C 79.95,304.33 159.84,212.44 344.49,0.01 M -0.2,402.63 C 101.79,285.31 203.78,167.98 349.48,0.37 M -0.2,402.63 C 113.41,271.94 227.02,141.25 349.48,0.37 M 0.2,408.27 C 90.61,304.27 181.02,200.26 355.12,-0.02 M 0.2,408.27 C 136.08,251.96 271.96,95.64 355.12,-0.02 M -0.07,414.67 C 135.68,258.52 271.42,102.36 360.11,0.34 M -0.07,414.67 C 82.36,319.86 164.78,225.04 360.11,0.34 M -0.33,421.07 C 126.69,274.96 253.7,128.84 365.75,-0.06 M -0.33,421.07 C 140.55,259.01 281.43,96.95 365.75,-0.06 M 0.07,426.71 C 128.71,278.73 257.35,130.75 370.74,0.3 M 0.07,426.71 C 78.77,336.18 157.47,245.64 370.74,0.3 M -0.19,433.11 C 98.42,319.67 197.03,206.23 376.38,-0.09 M -0.19,433.11 C 132.75,280.18 265.69,127.25 376.38,-0.09 M 0.2,438.75 C 148.15,268.55 296.11,98.35 381.37,0.27 M 0.2,438.75 C 102.89,320.62 205.59,202.48 381.37,0.27 M -0.06,445.15 C 94.4,336.48 188.86,227.82 387.01,-0.13 M -0.06,445.15 C 110.42,318.06 220.9,190.97 387.01,-0.13 M -0.32,451.55 C 108.91,325.9 218.13,200.24 392,0.23 M -0.32,451.55 C 127.97,303.97 256.26,156.39 392,0.23 M 0.07,457.19 C 111.51,329 222.94,200.81 397.64,-0.16 M 0.07,457.19 C 144.31,291.26 288.55,125.33 397.64,-0.16 M -0.19,463.59 C 115.91,330.04 232,196.48 402.63,0.2 M -0.19,463.59 C 138.69,303.83 277.57,144.06 402.63,0.2 M 0.21,469.23 C 163.27,281.65 326.33,94.08 408.27,-0.2 M 0.21,469.23 C 101.72,352.45 203.24,235.67 408.27,-0.2 M -0.06,475.63 C 115.72,342.45 231.5,209.26 413.26,0.16 M -0.06,475.63 C 88.9,373.3 177.86,270.97 413.26,0.16 M -0.32,482.03 C 156.1,302.1 312.51,122.16 418.9,-0.23 M -0.32,482.03 C 163.07,294.08 326.45,106.13 418.9,-0.23 M 0.08,487.67 C 88.61,385.83 177.14,283.99 423.89,0.13 M 0.08,487.67 C 111.83,359.11 223.58,230.56 423.89,0.13 M -0.18,494.07 C 91.86,388.19 183.9,282.31 429.53,-0.26 M -0.18,494.07 C 135.14,338.4 270.46,182.73 429.53,-0.26 M 0.21,499.71 C 96.4,389.06 192.59,278.4 434.52,0.1 M 0.21,499.71 C 151.47,325.71 302.73,151.7 434.52,0.1 M -0.05,506.11 C 122.5,365.14 245.04,224.16 440.16,-0.3 M -0.05,506.11 C 148.01,335.78 296.08,165.46 440.16,-0.3 M -0.31,512.51 C 158.73,329.55 317.77,146.6 445.15,0.06 M -0.31,512.51 C 160.03,328.05 320.38,143.6 445.15,0.06 M 0.08,518.15 C 163.88,329.72 327.68,141.3 450.79,-0.33 M 0.08,518.15 C 112.26,389.11 224.43,260.07 450.79,-0.33 M -0.18,524.55 C 112.37,395.07 224.92,265.6 455.78,0.03 M -0.18,524.55 C 146.85,355.41 293.87,186.28 455.78,0.03 M 0.22,530.19 c 96.49,-111 192.98,-222 461.2,-530.56 M 0.22,530.19 C 106.38,408.07 212.54,285.94 461.42,-0.37 M -0.05,536.59 C 99.99,421.51 200.02,306.44 466.41,-0.01 M -0.05,536.59 C 136.33,379.71 272.7,222.83 466.41,-0.01 m -466.72,543 C 187.37,327.09 375.05,111.19 471.4,0.35 M -0.31,542.99 C 160.41,358.1 321.13,173.22 471.4,0.35 M 0.09,548.63 C 179.21,342.58 358.33,136.52 477.04,-0.04 M 0.09,548.63 C 123.64,406.5 247.19,264.37 477.04,-0.04 M -0.17,555.03 C 122.15,414.31 244.48,273.58 482.03,0.32 M -0.17,555.03 C 107.73,430.9 215.64,306.76 482.03,0.32 M 0.22,560.67 C 164.99,371.13 329.75,181.59 487.67,-0.08 M 0.22,560.67 C 119.5,423.46 238.77,286.25 487.67,-0.08 M -0.04,567.07 C 169.02,372.59 338.08,178.1 492.66,0.28 M -0.04,567.07 C 101.19,450.62 202.42,334.16 492.66,0.28 M -0.3,573.47 C 150.24,400.29 300.78,227.11 498.3,-0.11 M -0.3,573.47 C 101.57,456.27 203.45,339.07 498.3,-0.11 M 0.09,579.11 C 188.73,362.1 377.37,145.1 503.29,0.25 M 0.09,579.11 C 198.7,350.64 397.3,122.18 503.29,0.25 M -0.17,585.51 C 182.87,374.94 365.91,164.38 508.93,-0.15 M -0.17,585.51 C 165.67,394.73 331.51,203.96 508.93,-0.15 M 0.22,591.15 C 154.23,413.99 308.23,236.84 513.92,0.21 M 0.22,591.15 C 197.05,364.73 393.88,138.31 513.92,0.21 M -0.04,597.55 C 205.37,361.26 410.77,124.97 519.56,-0.18 M -0.04,597.55 C 171.22,400.54 342.48,203.53 519.56,-0.18 M -0.3,603.95 C 110.39,476.62 221.08,349.28 524.55,0.18 M -0.3,603.95 C 181,395.39 362.3,186.83 524.55,0.18 M 0.1,609.59 C 204.64,374.29 409.19,138.98 530.19,-0.22 M 0.1,609.59 C 195.87,384.38 391.64,159.17 530.19,-0.22 M -0.16,615.99 C 130.15,466.07 260.47,316.16 535.18,0.14 M -0.16,615.99 C 181.23,407.32 362.63,198.65 535.18,0.14 M 0.23,621.63 C 162.43,435.04 324.63,248.45 540.82,-0.25 M 0.23,621.63 C 179.25,415.7 358.26,209.76 540.82,-0.25 M -0.03,628.03 c 150,-172.56 300,-345.11 545.84,-627.92 M -0.03,628.03 C 111.08,500.21 222.18,372.4 545.81,0.11 M -0.29,634.43 C 219.5,381.58 439.29,128.74 550.8,0.47 M -0.29,634.43 C 183.87,422.58 368.02,210.73 550.8,0.47 M 0.1,640.07 C 123.74,497.83 247.39,355.6 550.54,6.87 M 0.1,640.07 C 144.61,473.83 289.13,307.58 550.54,6.87 M -0.16,646.47 C 184.7,433.81 369.57,221.15 550.93,12.51 M -0.16,646.47 C 126.74,500.49 253.63,354.51 550.93,12.51 M 0.23,652.11 C 195.47,427.52 390.71,202.92 550.67,18.91 M 0.23,652.11 C 122.21,511.79 244.18,371.48 550.67,18.91 M -0.03,658.51 C 140.48,496.87 281,335.23 550.41,25.31 M -0.03,658.51 C 167.37,465.94 334.76,273.37 550.41,25.31 M -0.29,664.91 C 203.05,430.99 406.4,197.07 550.8,30.95 M -0.29,664.91 C 148.13,494.17 296.54,323.44 550.8,30.95 M 0.11,670.55 C 162.97,483.2 325.83,295.85 550.54,37.35 M 0.11,670.55 C 205.55,434.22 410.99,197.88 550.54,37.35 M -0.16,676.95 C 172.7,478.1 345.55,279.26 550.93,42.99 M -0.16,676.95 C 207.66,437.88 415.48,198.82 550.93,42.99 M 0.24,682.59 C 158.23,500.85 316.21,319.1 550.67,49.39 M 0.24,682.59 C 158.73,500.27 317.22,317.95 550.67,49.39 M -0.02,688.99 C 152.49,513.55 305,338.1 550.41,55.79 M -0.02,688.99 C 219.7,436.22 439.43,183.46 550.41,55.79 M -0.28,695.39 C 137.85,536.48 275.99,377.57 550.81,61.43 M -0.28,695.39 C 127.21,548.72 254.71,402.05 550.81,61.43 M 0.11,701.03 c 159.5,-183.49 319,-366.97 550.43,-633.2 M 0.11,701.03 C 205.2,465.1 410.3,229.16 550.54,67.83 M -0.15,707.43 C 165.68,516.66 331.52,325.89 550.94,73.47 M -0.15,707.43 C 120.77,568.32 241.69,429.22 550.94,73.47 M 0.24,713.07 C 123.81,570.92 247.37,428.78 550.68,79.87 M 0.24,713.07 C 119.8,575.54 239.35,438 550.68,79.87 M -0.02,719.47 C 189.4,501.57 378.82,283.66 550.42,86.27 M -0.02,719.47 C 110.56,592.26 221.15,465.05 550.42,86.27 M -0.28,725.86 C 162.92,538.13 326.11,350.4 550.81,91.91 M -0.28,725.86 C 129.58,576.48 259.44,427.09 550.81,91.91 M 0.12,731.51 C 208.62,491.65 417.12,251.8 550.55,98.31 M 0.12,731.51 C 196.82,505.23 393.52,278.95 550.55,98.31 M -0.15,737.91 C 199.24,508.53 398.63,279.16 550.94,103.95 M -0.15,737.91 C 117.46,602.62 235.06,467.34 550.94,103.95 M 0.25,743.55 C 218.01,493.04 435.77,242.53 550.68,110.35 M 0.25,743.55 C 112.08,614.9 223.91,486.25 550.68,110.35 M -0.01,749.95 C 121.53,610.13 243.08,470.31 550.42,116.75 M -0.01,749.95 C 175.44,548.11 350.9,346.27 550.42,116.75 M -0.27,756.34 C 152.65,580.43 305.57,404.51 550.82,122.39 M -0.27,756.34 C 157.08,575.33 314.44,394.31 550.82,122.39 M 0.12,761.99 C 173.3,562.76 346.48,363.54 550.55,128.79 M 0.12,761.99 C 111.76,633.56 223.39,505.14 550.55,128.79 M -0.14,768.39 C 164.9,578.53 329.93,388.68 550.95,134.43 M -0.14,768.39 C 156.62,588.05 313.38,407.72 550.95,134.43 M 0.25,774.03 C 125.15,630.35 250.06,486.66 550.69,140.83 M 0.25,774.03 C 165.1,584.39 329.95,394.76 550.69,140.83 M -0.01,780.43 C 125.95,635.53 251.91,490.63 550.43,147.22 M -0.01,780.43 C 172.14,582.4 344.28,384.36 550.43,147.22 M -0.27,786.82 C 211.09,543.68 422.45,300.54 550.82,152.87 M -0.27,786.82 C 179.11,580.48 358.48,374.13 550.82,152.87 M 0.13,792.47 C 123.99,649.98 247.85,507.49 550.56,159.27 M 0.13,792.47 C 119.04,655.67 237.95,518.88 550.56,159.27 M -0.14,798.86 C 194.13,575.39 388.39,351.91 550.95,164.91 M -0.14,798.86 C 209.48,557.73 419.1,316.59 550.95,164.91 M 0.26,804.51 C 187.23,589.43 374.2,374.34 550.69,171.31 M 0.26,804.51 C 150.4,631.79 300.55,459.06 550.69,171.31 M 0,810.91 C 189.4,593.02 378.8,375.14 550.43,177.7 M 0,810.91 C 135.66,654.84 271.33,498.78 550.43,177.7 M -0.26,817.3 C 119.11,679.98 238.48,542.66 550.83,183.35 M -0.26,817.3 C 161.87,630.79 324.01,444.27 550.83,183.35 M 0.13,822.95 C 171.15,626.21 342.16,429.48 550.56,189.75 M 0.13,822.95 C 159.18,639.99 318.22,457.02 550.56,189.75 M -0.13,829.34 C 215.81,580.94 431.74,332.53 550.96,195.39 M -0.13,829.34 C 178.65,623.68 357.43,418.02 550.96,195.39 M 0.26,834.99 C 136.17,678.64 272.08,522.29 550.7,201.79 M 0.26,834.99 C 196.1,609.71 391.93,384.43 550.7,201.79 M 0,841.39 C 216.63,592.18 433.26,342.98 550.44,208.18 M 0,841.39 C 187.29,625.93 374.59,410.47 550.44,208.18 M -0.26,847.78 C 159.31,664.22 318.87,480.66 550.83,213.83 M -0.26,847.78 C 152.81,671.7 305.88,495.61 550.83,213.83 M 0.14,853.43 C 133.43,700.09 266.72,546.75 550.57,220.22 M 0.14,853.43 C 193.59,630.89 387.04,408.35 550.57,220.22 M -0.13,859.82 C 119.78,721.89 239.68,583.96 550.96,225.87 M -0.13,859.82 C 202.93,626.23 405.99,392.64 550.96,225.87 M 0.27,865.47 C 193.04,643.71 385.81,421.95 550.7,232.27 M 0.27,865.47 C 165.66,675.2 331.06,484.93 550.7,232.27 M 3.29,868.09 C 195.97,646.43 388.66,424.77 550.44,238.66 M 3.29,868.09 C 180.75,663.94 358.21,459.8 550.44,238.66 M 8.27,868.45 C 128.98,729.59 249.7,590.73 550.84,244.31 M 8.27,868.45 C 205.05,642.09 401.82,415.73 550.84,244.31 M 13.92,868.06 C 151.65,709.61 289.39,551.16 550.57,250.7 M 13.92,868.06 C 188.1,667.68 362.29,467.3 550.57,250.7 M 18.9,868.42 C 208.27,650.57 397.64,432.73 550.97,256.35 M 18.9,868.42 C 149.88,717.75 280.85,567.08 550.97,256.35 M 24.55,868.02 C 149.04,724.81 273.54,581.59 550.71,262.75 M 24.55,868.02 C 198.83,667.54 373.1,467.05 550.71,262.75 M 29.53,868.38 C 206.46,664.86 383.38,461.33 550.45,269.14 M 29.53,868.38 C 181.58,693.48 333.62,518.57 550.45,269.14 M 35.18,867.99 C 158.81,725.77 282.44,583.54 550.84,274.79 M 35.18,867.99 C 235.84,637.15 436.5,406.31 550.84,274.79 M 40.16,868.35 C 221.35,659.91 402.54,451.48 550.58,281.18 M 40.16,868.35 C 230.85,648.99 421.53,429.64 550.58,281.18 M 45.15,868.71 C 225.22,661.56 405.29,454.41 550.97,286.83 M 45.15,868.71 C 210.03,679.03 374.91,489.36 550.97,286.83 M 50.79,868.31 C 188.5,709.9 326.21,551.48 550.71,293.22 M 50.79,868.31 C 249.68,639.52 448.57,410.72 550.71,293.22 M 55.78,868.67 C 212.81,688.03 369.84,507.39 550.45,299.62 M 55.78,868.67 C 180.53,725.16 305.28,581.65 550.45,299.62 M 61.42,868.28 C 240.93,661.78 420.43,455.29 550.84,305.27 M 61.42,868.28 C 161.29,753.4 261.15,638.52 550.84,305.27 M 66.41,868.64 C 259.3,646.74 452.19,424.85 550.58,311.66 M 66.41,868.64 C 192.83,723.21 319.24,577.79 550.58,311.66 M 72.05,868.24 C 257.3,655.15 442.54,442.05 550.98,317.31 M 72.05,868.24 C 198.67,722.6 325.28,576.95 550.98,317.31 M 77.04,868.6 C 226.4,696.79 375.76,524.97 550.72,323.7 M 77.04,868.6 C 232.78,689.45 388.51,510.3 550.72,323.7 M 82.68,868.21 C 216.28,714.53 349.88,560.84 550.46,330.1 M 82.68,868.21 C 262.23,661.67 441.77,455.13 550.46,330.1 M 87.67,868.57 C 239.08,694.39 390.49,520.22 550.85,335.74 M 87.67,868.57 C 186.86,754.46 286.05,640.36 550.85,335.74 M 93.32,868.18 C 232.99,707.49 372.67,546.81 550.59,342.14 M 93.32,868.18 C 184.87,762.85 276.43,657.52 550.59,342.14 M 98.3,868.54 C 249.48,694.62 400.66,520.71 550.98,347.79 M 98.3,868.54 C 260.79,681.62 423.27,494.7 550.98,347.79 M 103.95,868.14 C 229.41,723.81 354.87,579.49 550.72,354.18 M 103.95,868.14 C 230.93,722.07 357.91,575.99 550.72,354.18 M 108.93,868.5 C 276.53,675.71 444.12,482.91 550.46,360.58 M 108.93,868.5 C 280.1,671.59 451.27,474.68 550.46,360.58 M 114.58,868.11 C 262.17,698.32 409.77,528.53 550.85,366.22 M 114.58,868.11 C 218.95,748.04 323.31,627.98 550.85,366.22 M 119.56,868.47 C 269.98,695.44 420.39,522.41 550.59,372.62 M 119.56,868.47 c 89.53,-103 179.06,-205.99 431.03,-495.85 M 125.21,868.07 C 294.14,673.74 463.07,479.41 550.99,378.27 m -425.78,489.8 c 85.8,-98.7 171.6,-197.4 425.78,-489.8 M 130.19,868.43 C 243.54,738.04 356.89,607.65 550.73,384.66 M 130.19,868.43 C 260.22,718.85 390.25,569.27 550.73,384.66 M 135.84,868.04 C 246.61,740.61 357.39,613.17 550.46,391.06 M 135.84,868.04 C 276.87,705.8 417.9,543.55 550.46,391.06 M 140.82,868.4 C 227.3,768.92 313.78,669.44 550.86,396.7 M 140.82,868.4 C 249.54,743.34 358.25,618.28 550.86,396.7 M 146.47,868 C 289.02,704.01 431.58,540.02 550.6,403.1 M 146.47,868 C 290.74,702.03 435.02,536.06 550.6,403.1 M 151.45,868.36 C 305.22,691.48 458.98,514.59 550.99,408.74 M 151.45,868.36 C 243.86,762.06 336.26,655.76 550.99,408.74 M 156.44,868.72 C 294,710.48 431.56,552.24 550.73,415.14 M 156.44,868.72 c 152.5,-175.43 305,-350.86 394.29,-453.58 M 162.08,868.33 C 257.38,758.7 352.68,649.08 550.47,421.54 M 162.08,868.33 C 257.72,758.31 353.36,648.29 550.47,421.54 M 167.07,868.69 C 298.76,717.2 430.45,565.7 550.86,427.18 M 167.07,868.69 C 281.05,737.57 395.02,606.46 550.86,427.18 M 172.71,868.29 C 319.56,699.36 466.42,530.43 550.6,433.58 M 172.71,868.29 C 297.96,724.22 423.2,580.14 550.6,433.58 M 177.7,868.65 C 295.39,733.27 413.08,597.88 551,439.22 M 177.7,868.65 C 322.5,702.08 467.31,535.5 551,439.22 M 183.34,868.26 C 276.27,761.36 369.2,654.45 550.74,445.62 M 183.34,868.26 C 327.02,702.97 470.7,537.69 550.74,445.62 m -362.41,423 c 85.91,-98.83 171.83,-197.67 362.14,-416.6 m -362.14,416.6 c 106,-121.94 212.01,-243.89 362.14,-416.6 m -356.5,416.2 C 272.1,778.35 350.22,688.48 550.87,457.66 M 193.97,868.22 C 305.4,740.04 416.83,611.86 550.87,457.66 M 198.96,868.59 C 330.19,717.62 461.42,566.66 550.61,464.06 M 198.96,868.59 C 296.48,756.4 394,644.22 550.61,464.06 M 204.6,868.19 C 311.72,744.97 418.83,621.75 551,469.7 M 204.6,868.19 C 296.29,762.72 387.98,657.24 551,469.7 M 209.59,868.55 C 339.03,719.65 468.47,570.75 550.74,476.1 M 209.59,868.55 C 325.75,734.92 441.92,601.29 550.74,476.1 M 215.23,868.16 C 312.06,756.77 408.88,645.39 550.48,482.5 M 215.23,868.16 C 282.67,790.58 350.11,713 550.48,482.5 M 220.22,868.52 C 287.82,790.75 355.43,712.98 550.87,488.14 M 220.22,868.52 C 323.99,749.15 427.75,629.78 550.87,488.14 M 225.86,868.12 C 344.32,731.85 462.79,595.57 550.61,494.54 M 225.86,868.12 C 341.83,734.72 457.8,601.31 550.61,494.54 M 230.85,868.48 C 355.39,725.22 479.93,581.95 551.01,500.18 M 230.85,868.48 C 346.63,735.29 462.42,602.09 551.01,500.18 M 236.49,868.09 C 326.5,764.54 416.51,661 550.75,506.58 M 236.49,868.09 C 346.73,741.27 456.97,614.45 550.75,506.58 M 241.48,868.45 C 354.55,738.38 467.62,608.3 550.48,512.98 m -309,355.47 c 86.89,-99.95 173.77,-199.91 309,-355.47 M 247.12,868.05 C 321.61,782.37 396.09,696.68 550.88,518.62 M 247.12,868.05 C 333.19,769.04 419.27,670.03 550.88,518.62 M 252.11,868.41 C 359.66,744.69 467.21,620.96 550.62,525.02 M 252.11,868.41 C 312.54,798.9 372.96,729.39 550.62,525.02 m -292.87,343 C 367.67,741.57 477.59,615.12 551.01,530.66 M 257.75,868.02 c 70,-80.52 139.99,-161.04 293.26,-337.36 M 262.74,868.38 C 346.09,772.49 429.44,676.61 550.75,537.06 M 262.74,868.38 C 345.75,772.89 428.75,677.41 550.75,537.06 M 268.38,867.98 C 339.22,786.5 410.06,705.01 550.49,543.46 M 268.38,867.98 C 376.57,743.53 484.76,619.07 550.49,543.46 M 273.37,868.34 C 346.27,784.48 419.17,700.63 550.88,549.1 M 273.37,868.34 C 338.35,793.6 403.32,718.85 550.88,549.1 M 278.36,868.7 C 385.11,745.9 491.86,623.1 550.62,555.5 M 278.36,868.7 C 351.15,784.97 423.93,701.24 550.62,555.5 M 284,868.31 C 359.05,781.97 434.1,695.64 550.36,561.9 M 284,868.31 C 382.2,755.35 480.4,642.38 550.36,561.9 M 288.99,868.67 C 382.71,760.86 476.43,653.04 550.76,567.54 M 288.99,868.67 C 373.42,771.54 457.86,674.4 550.76,567.54 M 294.63,868.27 C 381.74,768.06 468.86,667.85 550.49,573.94 M 294.63,868.27 C 384.96,764.36 475.3,660.44 550.49,573.94 M 299.62,868.63 C 362.77,795.99 425.92,723.34 550.89,579.58 M 299.62,868.63 C 391.16,763.33 482.71,658.02 550.89,579.58 M 305.26,868.24 c 79.7,-91.68 159.4,-183.37 245.37,-282.26 M 305.26,868.24 C 374.3,788.82 443.34,709.4 550.63,585.98 M 310.25,868.6 c 52,-59.83 104.01,-119.65 240.12,-276.22 M 310.25,868.6 C 380.02,788.33 449.8,708.06 550.37,592.38 M 315.89,868.21 C 389.41,783.64 462.92,699.07 550.76,598.02 M 315.89,868.21 C 405.25,765.41 494.62,662.61 550.76,598.02 M 320.88,868.57 C 399.09,778.6 477.3,688.63 550.5,604.42 M 320.88,868.57 C 408.63,767.62 496.38,666.67 550.5,604.42 M 326.52,868.17 C 388.32,797.08 450.11,726 550.89,610.06 M 326.52,868.17 C 396.1,788.13 465.67,708.1 550.89,610.06 M 331.51,868.53 C 408.72,779.71 485.93,690.89 550.63,616.46 M 331.51,868.53 c 44.4,-51.08 88.8,-102.15 219.12,-252.07 M 337.15,868.14 C 417.03,776.25 496.9,684.36 550.37,622.86 M 337.15,868.14 C 393.16,803.7 449.17,739.27 550.37,622.86 M 342.14,868.5 c 67.39,-77.53 134.78,-155.05 208.62,-240 m -208.62,240 c 62.25,-71.62 124.5,-143.23 208.62,-240 M 347.78,868.1 C 401.58,806.21 455.38,744.33 550.5,634.9 M 347.78,868.1 C 401.22,806.62 454.67,745.15 550.5,634.9 M 352.77,868.46 c 72.5,-83.4 145,-166.8 198.13,-227.92 M 352.77,868.46 C 411.95,800.38 471.13,732.3 550.9,640.54 M 358.41,868.07 C 434.27,780.8 510.13,693.53 550.64,646.94 M 358.41,868.07 C 410.5,808.14 462.6,748.22 550.64,646.94 M 363.4,868.43 C 426.34,796.02 489.29,723.61 550.38,653.34 M 363.4,868.43 c 40.3,-46.37 80.61,-92.74 186.98,-215.09 M 369.04,868.03 c 54.8,-63.04 109.6,-126.08 181.73,-209.05 M 369.04,868.03 C 419.15,810.38 469.27,752.74 550.77,658.98 M 374.03,868.39 C 432.78,800.81 491.52,733.23 550.51,665.38 M 374.03,868.39 C 434.71,798.59 495.39,728.78 550.51,665.38 M 379.67,868 C 434.02,805.47 488.38,742.95 550.9,671.02 M 379.67,868 C 414.2,828.27 448.73,788.55 550.9,671.02 M 384.66,868.36 C 450.15,793.02 515.64,717.68 550.64,677.42 M 384.66,868.36 C 444.61,799.39 504.57,730.42 550.64,677.42 m -160.99,191.3 c 42.71,-49.14 85.43,-98.28 160.73,-184.91 M 389.65,868.72 C 422.64,830.76 455.64,792.8 550.38,683.81 M 395.29,868.32 c 31.69,-36.45 63.38,-72.91 155.48,-178.86 M 395.29,868.32 c 35.47,-40.8 70.94,-81.6 155.48,-178.86 M 400.28,868.68 C 454.7,806.07 509.13,743.46 550.51,695.86 M 400.28,868.68 C 456.76,803.7 513.25,738.72 550.51,695.86 M 405.92,868.29 C 461.72,804.09 517.53,739.9 550.91,701.5 M 405.92,868.29 c 41.74,-48.01 83.47,-96.03 144.99,-166.79 m -140,167.15 C 454.9,818.03 498.9,767.42 550.65,707.9 M 410.91,868.65 C 443.88,830.71 476.86,792.78 550.65,707.9 M 416.55,868.26 C 443.89,836.8 471.23,805.35 550.38,714.29 M 416.55,868.26 C 465.61,811.82 514.66,755.39 550.38,714.29 M 421.54,868.62 c 28.89,-33.25 57.79,-66.49 129.24,-148.68 M 421.54,868.62 c 31.05,-35.73 62.1,-71.45 129.24,-148.68 m -123.6,148.28 c 33.39,-38.41 66.77,-76.81 123.34,-141.88 M 427.18,868.22 c 33.68,-38.74 67.36,-77.49 123.34,-141.88 M 432.17,868.58 c 33.33,-38.34 66.65,-76.68 118.74,-136.6 m -118.74,136.6 c 32.85,-37.79 65.7,-75.58 118.74,-136.6 m -113.1,136.21 c 26.51,-30.5 53.02,-61 112.84,-129.81 M 437.81,868.19 c 33.76,-38.84 67.52,-77.68 112.84,-129.81 M 442.8,868.55 c 29.11,-33.5 58.23,-66.99 107.59,-123.78 M 442.8,868.55 C 482.15,823.27 521.51,778 550.39,744.77 M 448.44,868.15 C 478.12,834 507.81,799.85 550.78,750.42 M 448.44,868.15 c 32.69,-37.6 65.37,-75.2 102.34,-117.73 m -97.35,118.09 c 26.22,-30.16 52.44,-60.32 97.09,-111.7 m -97.09,111.7 c 35.06,-40.33 70.12,-80.66 97.09,-111.7 m -91.45,111.31 c 24.92,-28.67 49.83,-57.33 91.85,-105.66 m -91.85,105.66 c 26.73,-30.75 53.46,-61.5 91.85,-105.66 m -86.86,106.02 c 30.11,-34.65 60.23,-69.29 86.6,-99.62 m -86.6,99.62 c 21.55,-24.79 43.09,-49.58 86.6,-99.62 m -80.96,99.22 c 28.73,-33.05 57.46,-66.1 80.69,-92.83 m -80.69,92.83 c 28.59,-32.89 57.18,-65.78 80.69,-92.83 m -75.7,93.19 c 20.15,-23.18 40.3,-46.36 76.1,-87.54 m -76.1,87.54 c 18.88,-21.72 37.75,-43.43 76.1,-87.54 m -70.46,87.15 c 25.55,-29.39 51.1,-58.79 70.2,-80.76 m -70.2,80.76 c 23.32,-26.83 46.64,-53.65 70.2,-80.76 m -65.21,81.12 c 24.55,-28.25 49.11,-56.5 65.6,-75.47 m -65.6,75.47 c 20.38,-23.45 40.76,-46.9 65.6,-75.47 m -59.96,75.07 c 15.33,-17.63 30.66,-35.27 59.7,-68.67 m -59.7,68.67 c 13.76,-15.82 27.51,-31.64 59.7,-68.67 m -54.71,69.03 c 17.52,-20.15 35.04,-40.31 54.45,-62.64 m -54.45,62.64 C 508,854.51 520.06,840.64 550.4,805.73 m -48.81,62.25 c 11.74,-13.5 23.47,-27.01 49.2,-56.6 m -49.2,56.6 c 16.61,-19.11 33.22,-38.22 49.2,-56.6 m -44.21,56.96 c 15.15,-17.43 30.3,-34.86 43.95,-50.57 m -43.95,50.57 c 13.08,-15.05 26.16,-30.1 43.95,-50.57 m -38.97,50.93 c 10.06,-11.56 20.11,-23.13 39.37,-45.28 m -39.37,45.28 c 12.81,-14.73 25.61,-29.45 39.37,-45.28 m -33.72,44.88 c 12.47,-14.34 24.94,-28.69 33.46,-38.49 m -33.46,38.49 c 9.69,-11.15 19.39,-22.31 33.46,-38.49 m -28.48,38.86 c 8.34,-9.6 16.68,-19.19 28.21,-32.46 m -28.21,32.46 c 9.8,-11.28 19.61,-22.55 28.21,-32.46 m -22.56,32.06 c 7.53,-8.67 15.07,-17.33 22.96,-26.41 m -22.96,26.41 c 6.45,-7.42 12.9,-14.85 22.96,-26.41 m -17.98,26.77 c 5.14,-5.91 10.27,-11.81 17.72,-20.38 m -17.72,20.38 c 6.05,-6.95 12.09,-13.91 17.72,-20.38 m -12.07,19.99 c 2.8,-3.23 5.6,-6.45 12.46,-14.34 m -12.46,14.34 c 4.82,-5.56 9.65,-11.11 12.46,-14.34 m -7.48,14.7 c 1.52,-1.75 3.05,-3.5 7.22,-8.31 m -7.22,8.31 c 2.36,-2.72 4.72,-5.43 7.22,-8.31 m -1.57,7.91 c 0.35,-0.4 0.7,-0.81 1.31,-1.51 m -1.31,1.51 c 0.33,-0.39 0.67,-0.77 1.31,-1.51 M -0.35,867.7 c 0,0 0,0 0,0 m 0,0 c 0,0 0,0 0,0 m 6.4,0.26 c -2.17,-1.89 -4.34,-3.77 -6.04,-5.25 m 6.04,5.25 C 3.8,866.01 1.56,864.05 0.01,862.71 m 12.44,5.51 C 8.41,864.71 4.37,861.2 0.37,857.72 m 12.08,10.5 C 8.04,864.39 3.63,860.55 0.37,857.72 m 17.72,10.11 c -7,-6.09 -14,-12.18 -18.11,-15.75 m 18.11,15.75 C 11.81,862.36 5.52,856.9 -0.02,852.08 m 24.51,16.01 c -9.51,-8.27 -19.02,-16.54 -24.15,-21 m 24.15,21 C 15.5,860.27 6.51,852.46 0.34,847.09 m 29.79,20.6 C 20.06,858.94 9.99,850.18 -0.06,841.45 m 30.19,26.24 c -6.9,-6 -13.81,-12 -30.19,-26.24 m 36.59,26.51 C 25.93,858.74 15.33,849.53 0.3,836.46 m 36.23,31.5 C 26.45,859.19 16.36,850.42 0.3,836.46 m 42.63,31.76 C 26.78,854.18 10.63,840.14 -0.09,830.82 m 43.02,37.4 C 25.83,853.36 8.74,838.5 -0.09,830.82 m 48.66,37 C 33.38,854.62 18.19,841.41 0.27,825.83 m 48.3,41.99 C 38.07,858.7 27.58,849.57 0.27,825.83 m 54.7,42.25 C 34.07,849.92 13.18,831.76 -0.12,820.19 m 55.09,47.89 C 40.34,855.36 25.7,842.64 -0.12,820.19 m 60.73,47.5 C 37.34,847.46 14.07,827.23 0.24,815.2 m 60.37,52.49 C 48.18,856.88 35.74,846.07 0.24,815.2 m 66.77,52.75 C 53.27,856 39.52,844.05 -0.16,809.56 m 67.17,58.39 C 41.54,845.81 16.07,823.67 -0.16,809.56 m 73.57,58.65 C 46.07,844.45 18.73,820.68 0.2,804.57 m 73.21,63.64 C 55.56,852.7 37.72,837.19 0.2,804.57 m 78.85,63.25 c -16.1,-14 -32.2,-27.99 -79.24,-68.89 m 79.24,68.89 C 53.97,846.01 28.89,824.21 -0.19,798.93 m 85.64,69.15 C 52.29,839.26 19.14,810.44 0.17,793.94 m 85.28,74.14 C 67.27,852.28 49.1,836.48 0.17,793.94 m 90.92,73.74 C 61.99,842.39 32.9,817.1 -0.23,788.3 m 91.32,79.38 C 55.58,836.82 20.07,805.95 -0.23,788.3 m 97.72,79.65 C 69.86,843.93 42.24,819.92 0.13,783.31 m 97.36,84.64 C 60.58,835.86 23.66,803.77 0.13,783.31 m 103.76,84.9 C 63.57,833.16 23.26,798.11 -0.26,777.67 m 104.15,90.54 C 68.45,837.4 33.01,806.59 -0.26,777.67 m 109.79,90.14 C 70.9,834.23 32.26,800.64 0.1,772.68 m 109.43,95.13 C 77.81,840.24 46.09,812.66 0.1,772.68 m 115.83,95.39 C 88.41,844.16 60.9,820.24 -0.3,767.04 M 115.93,868.07 C 87.15,843.05 58.36,818.03 -0.3,767.04 M 121.57,867.68 C 93.21,843.02 64.84,818.36 0.06,762.05 M 121.57,867.68 C 88.03,838.52 54.49,809.37 0.06,762.05 M 127.97,867.94 C 78.19,824.67 28.42,781.4 -0.33,756.41 m 128.3,111.53 C 99.66,843.33 71.34,818.72 -0.33,756.41 M 134.37,868.2 C 106.97,844.39 79.57,820.57 0.03,751.42 M 134.37,868.2 C 87.18,827.19 40,786.17 0.03,751.42 M 140.01,867.81 C 90.41,824.69 40.82,781.58 -0.37,745.78 M 140.01,867.81 C 97.64,830.97 55.26,794.14 -0.37,745.78 M 146.41,868.07 C 104.58,831.71 62.76,795.35 -0.01,740.79 M 146.41,868.07 C 100.74,828.37 55.07,788.67 -0.01,740.79 M 152.05,867.67 C 100.84,823.16 49.64,778.65 0.35,735.81 m 151.7,131.86 C 96.45,819.34 40.85,771.01 0.35,735.81 m 158.1,132.13 C 104.25,820.82 50.04,773.7 -0.04,730.16 M 158.45,867.94 C 120.84,835.25 83.24,802.56 -0.04,730.16 M 164.85,868.2 C 109.29,819.9 53.74,771.61 0.32,725.18 M 164.85,868.2 C 128.19,836.33 91.54,804.47 0.32,725.18 M 170.49,867.8 C 105.94,811.69 41.38,755.57 -0.07,719.53 M 170.49,867.8 C 104.08,810.07 37.67,752.34 -0.07,719.53 M 176.89,868.06 C 134.02,830.8 91.14,793.53 0.29,714.55 m 176.6,153.51 C 121.86,820.23 66.83,772.39 0.29,714.55 m 183,153.78 C 138.75,829.62 94.22,790.91 -0.11,708.9 m 183.4,159.43 C 125.88,818.42 68.48,768.52 -0.11,708.9 M 188.93,867.93 C 125.88,813.13 62.83,758.32 0.25,703.92 m 188.68,164.01 c -39,-33.9 -78,-67.8 -188.68,-164.01 M 195.33,868.19 C 131.81,812.98 68.29,757.76 -0.14,698.27 M 195.33,868.19 C 129.67,811.12 64.01,754.04 -0.14,698.27 M 200.97,867.8 C 123.61,800.55 46.24,733.3 0.22,693.29 M 200.97,867.8 C 137.8,812.88 74.62,757.97 0.22,693.29 M 207.37,868.06 C 154.03,821.7 100.7,775.33 -0.18,687.64 M 207.37,868.06 C 151.64,819.62 95.92,771.18 -0.18,687.64 M 213.76,868.32 C 136.43,801.09 59.09,733.86 0.18,682.66 M 213.76,868.32 C 133.69,798.71 53.62,729.11 0.18,682.66 M 219.41,867.93 C 172.59,827.22 125.76,786.52 -0.21,677.01 M 219.41,867.93 C 152.62,809.87 85.84,751.82 -0.21,677.01 M 225.81,868.19 C 153.09,804.98 80.38,741.77 0.15,672.03 M 225.81,868.19 C 144.67,797.65 63.53,727.12 0.15,672.03 m 231.3,195.76 C 182.77,825.48 134.1,783.17 -0.25,666.38 m 231.7,201.41 C 157.59,803.59 83.73,739.39 -0.25,666.38 m 238.1,201.67 C 162.76,802.78 87.67,737.51 0.11,661.4 M 237.85,868.05 C 149.01,790.83 60.18,713.61 0.11,661.4 M 244.24,868.32 C 193.8,824.47 143.36,780.62 -0.28,655.75 M 244.24,868.32 C 153.41,789.36 62.59,710.4 -0.28,655.75 M 249.89,867.92 C 178.64,805.99 107.4,744.06 0.08,650.77 M 249.89,867.92 C 161.19,790.82 72.5,713.72 0.08,650.77 m 256.2,217.41 C 204.27,822.97 152.26,777.76 -0.32,645.12 m 256.6,223.06 C 203.97,822.71 151.66,777.24 -0.32,645.12 M 261.93,867.79 C 166.41,784.76 70.9,701.73 0.04,640.14 M 261.93,867.79 C 163.9,782.57 65.87,697.36 0.04,640.14 M 268.33,868.05 C 176.35,788.1 84.38,708.14 -0.35,634.49 M 268.33,868.05 C 176.83,788.52 85.34,708.98 -0.35,634.49 M 274.72,868.31 C 170.04,777.31 65.35,686.31 0.01,629.51 m 274.71,238.8 C 182.72,788.33 90.71,708.35 0.01,629.51 M 280.37,867.92 C 221.45,816.7 162.53,765.49 0.37,624.52 m 280,243.4 C 171.5,773.28 62.63,678.64 0.37,624.52 M 286.76,868.18 C 185.51,780.16 84.25,692.14 -0.03,618.88 m 286.79,249.3 C 208.44,800.09 130.12,732.01 -0.03,618.88 m 292.44,248.9 C 194.74,782.88 97.08,697.99 0.33,613.89 M 292.41,867.78 C 193.43,781.75 94.46,695.71 0.33,613.89 M 298.81,868.04 C 181.73,766.28 64.66,664.51 -0.06,608.25 M 298.81,868.04 C 221.71,801.03 144.62,734.01 -0.06,608.25 M 305.2,868.31 C 218.66,793.08 132.12,717.85 0.3,603.26 M 305.2,868.31 C 224.81,798.42 144.42,728.54 0.3,603.26 M 310.85,867.91 C 248.59,813.79 186.33,759.67 -0.09,597.62 M 310.85,867.91 C 220.26,789.16 129.67,710.42 -0.09,597.62 M 317.24,868.17 C 199.79,766.07 82.33,663.97 0.27,592.63 M 317.24,868.17 C 247.83,807.83 178.41,747.49 0.27,592.63 M 322.89,867.78 C 202.09,762.77 81.29,657.76 -0.13,586.99 M 322.89,867.78 C 255.71,809.39 188.54,750.99 -0.13,586.99 M 329.28,868.04 C 214.6,768.35 99.92,668.66 0.23,582 M 329.28,868.04 C 216.27,769.8 103.25,671.55 0.23,582 M 335.68,868.3 C 234.75,780.57 133.83,692.83 -0.16,576.36 M 335.68,868.3 C 209.64,758.73 83.6,649.17 -0.16,576.36 M 341.33,867.91 C 234.24,774.82 127.16,681.73 0.2,571.37 M 341.33,867.91 C 219.04,761.61 96.76,655.31 0.2,571.37 m 347.52,296.8 C 257.39,789.64 167.05,711.11 -0.2,565.73 M 347.72,868.17 C 210.75,749.1 73.77,630.02 -0.2,565.73 M 353.37,867.77 C 280.93,804.81 208.5,741.84 0.16,560.74 M 353.37,867.77 C 258.63,785.42 163.89,703.06 0.16,560.74 m 359.6,307.3 C 243.38,766.86 126.99,665.69 -0.23,555.1 M 359.76,868.04 C 217.1,744.02 74.44,620.01 -0.23,555.1 M 366.16,868.3 C 255.42,772.03 144.67,675.76 0.13,550.11 M 366.16,868.3 C 271.07,785.63 175.97,702.97 0.13,550.11 M 371.81,867.9 C 276.7,785.23 181.6,702.56 -0.27,544.47 M 371.81,867.9 C 241.96,755.03 112.11,642.15 -0.27,544.47 M 378.2,868.16 C 253.78,760 129.35,651.84 0.09,539.48 M 378.2,868.16 C 301.44,801.44 224.68,734.71 0.09,539.48 M 383.85,867.77 C 302.07,796.68 220.29,725.59 -0.3,533.83 M 383.85,867.77 C 249.17,750.7 114.5,633.63 -0.3,533.83 m 390.54,334.2 C 253.85,749.47 117.46,630.9 0.06,528.85 M 390.24,868.03 C 253.47,749.13 116.69,630.23 0.06,528.85 M 396.64,868.29 C 299.92,784.21 203.19,700.13 -0.34,523.2 M 396.64,868.29 C 264.6,753.51 132.57,638.74 -0.34,523.2 M 402.28,867.9 C 293.23,773.1 184.17,678.29 0.02,518.22 M 402.28,867.9 C 306.6,784.72 210.92,701.55 0.02,518.22 M 408.68,868.16 C 249.72,729.97 90.75,591.79 -0.37,512.57 M 408.68,868.16 C 261.64,740.34 114.6,612.52 -0.37,512.57 m 414.7,355.19 C 272.2,744.22 130.08,620.67 -0.01,507.59 M 414.33,867.76 C 255.53,729.73 96.74,591.69 -0.01,507.59 M 420.72,868.03 C 260.71,728.92 100.69,589.82 0.35,502.6 M 420.72,868.03 C 282.7,748.04 144.67,628.06 0.35,502.6 M 427.12,868.29 C 317.44,772.94 207.76,677.6 -0.04,496.96 M 427.12,868.29 C 261.47,724.29 95.81,580.28 -0.04,496.96 m 432.8,370.93 C 283.64,738.26 134.51,608.63 0.32,491.97 M 432.76,867.89 C 316.33,766.68 199.9,665.47 0.32,491.97 M 439.16,868.15 C 331.1,774.22 223.04,680.28 -0.08,486.33 M 439.16,868.15 C 335.75,778.26 232.34,688.36 -0.08,486.33 M 444.81,867.76 C 312.14,752.44 179.48,637.12 0.28,481.34 M 444.81,867.76 C 335.91,773.1 227.01,678.43 0.28,481.34 M 451.2,868.02 C 276.71,716.34 102.22,564.66 -0.11,475.7 M 451.2,868.02 C 273.89,713.89 96.58,559.75 -0.11,475.7 M 457.6,868.28 C 342.86,768.54 228.11,668.79 0.25,470.71 M 457.6,868.28 C 342.72,768.42 227.84,668.55 0.25,470.71 M 463.24,867.89 C 325.78,748.4 188.32,628.9 -0.15,465.07 M 463.24,867.89 C 319.75,743.15 176.26,618.42 -0.15,465.07 M 469.64,868.15 C 327.02,744.17 184.39,620.18 0.21,460.08 M 469.64,868.15 C 321.16,739.07 172.67,610 0.21,460.08 M 475.28,867.75 C 362.94,770.1 250.6,672.44 -0.18,454.44 M 475.28,867.75 C 324.03,736.27 172.77,604.78 -0.18,454.44 M 481.68,868.02 C 312.63,721.06 143.58,574.11 0.18,449.45 m 481.5,418.57 C 384.61,783.63 287.54,699.25 0.18,449.45 m 487.9,418.83 C 386.53,780 284.98,691.72 -0.22,443.81 m 488.3,424.47 C 325.26,726.74 162.44,585.21 -0.22,443.81 M 493.72,867.88 C 306.82,705.41 119.91,542.94 0.14,438.82 M 493.72,867.88 C 345.09,738.68 196.46,609.48 0.14,438.82 M 500.12,868.14 C 371.87,756.66 243.62,645.17 -0.25,433.18 M 500.12,868.14 C 323.2,714.35 146.28,560.55 -0.25,433.18 M 505.76,867.75 C 321.31,707.41 136.86,547.06 0.11,428.19 M 505.76,867.75 C 332.95,717.52 160.13,567.29 0.11,428.19 M 512.16,868.01 C 323.53,704.04 134.9,540.06 -0.29,422.55 M 512.16,868.01 C 328.02,707.94 143.88,547.87 -0.29,422.55 M 518.56,868.27 C 321.64,697.09 124.72,525.91 0.07,417.56 M 518.56,868.27 C 371.71,740.62 224.87,612.97 0.07,417.56 M 524.2,867.88 C 328.92,698.12 133.63,528.36 -0.32,411.92 M 524.2,867.88 C 411.8,770.17 299.4,672.46 -0.32,411.92 M 530.6,868.14 C 378.7,736.09 226.8,604.05 0.04,406.93 M 530.6,868.14 C 414.95,767.6 299.3,667.07 0.04,406.93 m 536.2,460.81 C 407.4,755.74 278.56,643.74 -0.35,401.29 M 536.24,867.74 C 340.45,697.55 144.66,527.35 -0.35,401.29 M 542.64,868.01 C 412.92,755.24 283.2,642.48 0.01,396.3 M 542.64,868.01 C 395.38,740 248.13,611.99 0.01,396.3 M 549.04,868.27 C 337.88,684.71 126.72,501.15 0.37,391.31 M 549.04,868.27 C 362.33,705.96 175.61,543.65 0.37,391.31 M 550.15,863.94 C 338.34,679.81 126.52,495.68 -0.03,385.67 M 550.15,863.94 C 384.26,719.73 218.37,575.52 -0.03,385.67 M 549.76,858.29 C 350.82,685.36 151.88,512.42 0.33,380.68 M 549.76,858.29 C 410.97,737.65 272.19,617 0.33,380.68 M 550.12,853.31 C 350.26,679.57 150.4,505.83 -0.06,375.04 M 550.12,853.31 C 330.39,662.3 110.66,471.29 -0.06,375.04 M 550.48,848.32 C 347.17,671.58 143.85,494.85 0.3,370.05 M 550.48,848.32 C 387.28,706.45 224.08,564.58 0.3,370.05 M 550.08,842.68 C 437.2,744.54 324.31,646.41 -0.1,364.41 M 550.08,842.68 C 336.24,656.78 122.39,470.88 -0.1,364.41 M 550.45,837.69 C 359.47,671.67 168.49,505.66 0.26,359.42 M 550.45,837.69 C 412.87,718.1 275.3,598.51 0.26,359.42 M 550.05,832.05 C 421.16,720 292.27,607.96 -0.13,353.78 M 550.05,832.05 C 370.68,676.12 191.31,520.2 -0.13,353.78 M 550.41,827.06 C 398.04,694.61 245.67,562.16 0.23,348.79 M 550.41,827.06 C 345.01,648.51 139.61,469.95 0.23,348.79 M 550.02,821.42 C 348.53,646.27 147.05,471.12 -0.17,343.15 M 550.02,821.42 C 439.56,725.4 329.1,629.38 -0.17,343.15 M 550.38,816.43 C 394.51,680.94 238.65,545.45 0.19,338.16 M 550.38,816.43 C 379.95,668.28 209.52,520.13 0.19,338.16 M 549.98,810.79 C 435.05,710.88 320.11,610.96 -0.2,332.52 M 549.98,810.79 C 420.64,698.35 291.29,585.91 -0.2,332.52 M 550.34,805.8 C 367.32,646.7 184.3,487.61 0.16,327.53 M 550.34,805.8 C 338.28,621.45 126.21,437.11 0.16,327.53 M 549.95,800.16 C 350.55,626.83 151.16,453.5 -0.24,321.89 M 549.95,800.16 C 338.66,616.49 127.37,432.81 -0.24,321.89 M 550.31,795.17 C 366.72,635.58 183.13,475.98 0.12,316.9 M 550.31,795.17 C 380.15,647.25 209.99,499.33 0.12,316.9 M 549.91,789.53 C 374.4,636.96 198.89,484.39 -0.27,311.26 M 549.91,789.53 C 420.4,676.95 290.9,564.37 -0.27,311.26 M 550.27,784.54 C 419.74,671.07 289.2,557.59 0.09,306.27 M 550.27,784.54 C 400.07,653.97 249.87,523.41 0.09,306.27 M 549.88,778.9 C 350.09,605.23 150.31,431.56 -0.31,300.63 M 549.88,778.9 C 379.43,630.73 208.99,482.57 -0.31,300.63 M 550.24,773.91 C 365.16,613.02 180.08,452.13 0.05,295.64 M 550.24,773.91 C 412.07,653.8 273.89,533.69 0.05,295.64 M 549.84,768.27 C 400.52,638.46 251.2,508.66 -0.34,290 M 549.84,768.27 C 351.4,595.76 152.95,423.25 -0.34,290 M 550.2,763.28 C 348.65,588.07 147.09,412.86 0.02,285.01 M 550.2,763.28 C 384.57,619.3 218.95,475.32 0.02,285.01 M 549.81,757.64 C 432.8,655.92 315.79,554.2 -0.37,279.37 M 549.81,757.64 C 398.88,626.43 247.94,495.23 -0.37,279.37 M 550.17,752.65 C 437.65,654.84 325.14,557.03 -0.01,274.38 M 550.17,752.65 C 405.54,626.92 260.91,501.2 -0.01,274.38 M 549.77,747.01 C 413.55,628.58 277.32,510.16 0.35,269.39 M 549.77,747.01 C 346.6,570.39 143.43,393.78 0.35,269.39 M 550.13,742.02 C 346.3,564.82 142.46,387.63 -0.05,263.75 M 550.13,742.02 C 407.3,617.86 264.47,493.69 -0.05,263.75 M 549.74,736.38 C 423.15,626.33 296.55,516.28 0.31,258.76 M 549.74,736.38 C 385.5,593.6 221.25,450.82 0.31,258.76 M 550.1,731.39 C 370.69,575.43 191.27,419.47 -0.08,253.12 M 550.1,731.39 C 331.66,541.5 113.22,351.61 -0.08,253.12 M 550.46,726.4 C 382.4,580.31 214.34,434.22 0.28,248.13 M 550.46,726.4 C 359.84,560.7 169.21,394.99 0.28,248.13 M 550.07,720.76 C 343.58,541.27 137.1,361.78 -0.12,242.49 M 550.07,720.76 C 404.96,594.62 259.85,468.48 -0.12,242.49 M 550.43,715.77 C 434.52,615.02 318.62,514.27 0.24,237.5 M 550.43,715.77 C 368.92,557.99 187.42,400.21 0.24,237.5 M 550.03,710.13 C 349.62,535.92 149.22,361.71 -0.15,231.86 M 550.03,710.13 C 422.86,599.58 295.68,489.02 -0.15,231.86 M 550.39,705.14 C 343.64,525.42 136.89,345.69 0.21,226.87 M 550.39,705.14 C 385.59,561.89 220.8,418.63 0.21,226.87 M 550,699.5 C 340.19,517.12 130.39,334.74 -0.19,221.23 M 550,699.5 C 355.52,530.44 161.04,361.38 -0.19,221.23 M 550.36,694.51 C 427.79,587.97 305.23,481.43 0.17,216.24 M 550.36,694.51 C 419.14,580.44 287.92,466.38 0.17,216.24 M 549.96,688.87 C 408.53,565.92 267.09,442.97 -0.22,210.6 M 549.96,688.87 C 402.64,560.8 255.32,432.74 -0.22,210.6 M 550.32,683.88 C 404.11,556.78 257.9,429.68 0.14,205.61 M 550.32,683.88 C 350.74,510.39 151.16,336.9 0.14,205.61 M 549.93,678.24 C 404.57,551.88 259.21,425.52 -0.26,199.97 M 549.93,678.24 C 388.25,537.7 226.57,397.15 -0.26,199.97 M 550.29,673.25 C 434.17,572.31 318.04,471.36 0.1,194.98 M 550.29,673.25 C 428.68,567.54 307.06,461.82 0.1,194.98 M 549.89,667.61 C 430.16,563.52 310.42,459.44 -0.29,189.34 M 549.89,667.61 C 365.9,507.67 181.91,347.73 -0.29,189.34 M 550.25,662.62 C 408.74,539.61 267.24,416.6 0.07,184.35 M 550.25,662.62 C 332.97,473.74 115.69,284.86 0.07,184.35 M 549.86,656.98 C 343.83,477.88 137.8,298.78 -0.32,178.71 M 549.86,656.98 C 343.58,477.67 137.31,298.35 -0.32,178.71 M 550.22,651.99 C 332.96,463.13 115.71,274.28 0.04,173.72 M 550.22,651.99 C 330.81,461.26 111.39,270.53 0.04,173.72 M 549.82,646.35 C 366.06,486.6 182.29,326.85 -0.36,168.08 M 549.82,646.35 C 338.75,462.86 127.67,279.38 -0.36,168.08 M 550.18,641.36 C 381.29,494.55 212.4,347.73 0,163.09 M 550.18,641.36 C 341.2,459.69 132.22,278.03 0,163.09 M 549.79,635.72 C 364.23,474.41 178.66,313.1 0.36,158.11 M 549.79,635.72 C 433.48,534.61 317.16,433.5 0.36,158.11 M 550.15,630.73 C 402.39,502.29 254.64,373.85 -0.03,152.46 M 550.15,630.73 C 430.17,526.44 310.19,422.14 -0.03,152.46 M 549.76,625.09 C 346.85,448.7 143.94,272.31 0.33,147.48 M 549.76,625.09 C 388.78,485.15 227.8,345.22 0.33,147.48 M 550.12,620.1 C 414.28,502.02 278.44,383.94 -0.07,141.83 M 550.12,620.1 C 425.61,511.87 301.11,403.64 -0.07,141.83 M 550.48,615.11 C 410.41,493.35 270.34,371.59 0.29,136.85 M 550.48,615.11 C 361.08,450.48 171.69,285.84 0.29,136.85 M 550.08,609.47 C 439.26,513.13 328.43,416.79 -0.1,131.2 M 550.08,609.47 C 412.46,489.84 274.83,370.2 -0.1,131.2 M 550.44,604.48 C 351.49,431.54 152.54,258.59 0.26,126.22 M 550.44,604.48 C 404.65,477.75 258.86,351.01 0.26,126.22 M 550.05,598.84 C 338.88,415.28 127.72,231.72 -0.14,120.57 M 550.05,598.84 C 347.55,422.81 145.04,246.78 -0.14,120.57 M 550.41,593.85 C 385.02,450.09 219.63,306.32 0.22,115.59 M 550.41,593.85 C 419.69,480.23 288.98,366.6 0.22,115.59 M 550.01,588.21 C 419.16,474.46 288.3,360.71 -0.17,109.94 M 550.01,588.21 C 334.72,401.06 119.43,213.91 -0.17,109.94 M 550.37,583.22 C 427.14,476.1 303.9,368.97 0.19,104.96 M 550.37,583.22 C 425.38,474.57 300.39,365.92 0.19,104.96 M 549.98,577.58 C 385.17,434.32 220.37,291.06 -0.21,99.31 M 549.98,577.58 C 349.74,403.52 149.51,229.46 -0.21,99.31 M 550.34,572.59 C 370.77,416.5 191.21,260.41 0.15,94.33 M 550.34,572.59 C 395.32,437.84 240.3,303.09 0.15,94.33 M 549.94,566.95 C 386.48,424.85 223.01,282.75 -0.24,88.68 M 549.94,566.95 C 405.33,441.24 260.72,315.53 -0.24,88.68 M 550.3,561.96 C 360.74,397.18 171.18,232.4 0.12,83.7 M 550.3,561.96 C 422.61,450.96 294.91,339.95 0.12,83.7 M 549.91,556.32 C 411.84,436.3 273.78,316.29 -0.27,78.05 M 549.91,556.32 C 386.11,413.93 222.31,271.55 -0.27,78.05 M 550.27,551.33 C 408.61,428.19 266.95,305.04 0.09,73.07 M 550.27,551.33 C 334.7,363.94 119.14,176.56 0.09,73.07 M 549.87,545.69 C 344.33,367.01 138.78,188.33 -0.31,67.42 M 549.87,545.69 C 433.76,444.75 317.64,343.81 -0.31,67.42 M 550.23,540.7 C 337.67,355.92 125.1,171.14 0.05,62.44 M 550.23,540.7 C 408.68,417.65 267.12,294.59 0.05,62.44 M 549.84,535.06 C 346.36,358.18 142.88,181.3 -0.34,56.79 M 549.84,535.06 C 341.77,354.19 133.71,173.32 -0.34,56.79 M 550.2,530.07 C 388.16,389.22 226.13,248.36 0.02,51.81 M 550.2,530.07 C 435.88,430.7 321.57,331.33 0.02,51.81 M 549.8,524.43 C 364.86,363.66 179.91,202.89 0.38,46.82 M 549.8,524.43 C 381.01,377.7 212.22,230.97 0.38,46.82 M 550.16,519.44 C 391.98,381.94 233.8,244.43 -0.02,41.18 M 550.16,519.44 C 437.21,421.26 324.26,323.07 -0.02,41.18 M 549.77,513.8 C 405.23,388.16 260.7,262.51 0.34,36.19 M 549.77,513.8 C 363.45,351.83 177.13,189.87 0.34,36.19 M 550.13,508.81 C 377.89,359.09 205.65,209.36 -0.05,30.55 M 550.13,508.81 C 387.99,367.87 225.85,226.92 -0.05,30.55 M 549.74,503.17 C 368.14,345.31 186.55,187.46 0.31,25.56 M 549.74,503.17 C 358.74,337.14 167.74,171.11 0.31,25.56 M 550.1,498.18 C 406.45,373.31 262.8,248.44 -0.09,19.92 M 550.1,498.18 C 383.03,352.96 215.97,207.73 -0.09,19.92 M 550.46,493.2 C 433.56,391.58 316.67,289.97 0.27,14.93 M 550.46,493.2 C 418.79,378.74 287.11,264.28 0.27,14.93 M 550.06,487.55 C 404.98,361.43 259.9,235.32 -0.12,9.29 M 550.06,487.55 C 361.56,323.69 173.05,159.83 -0.12,9.29 M 550.42,482.57 C 344.31,303.4 138.2,124.23 0.24,4.3 M 550.42,482.57 C 410.91,361.29 271.4,240.01 0.24,4.3 M 550.03,476.92 C 332.9,288.18 115.78,99.43 0.6,-0.69 M 550.03,476.92 C 382.51,331.3 214.99,185.68 0.6,-0.69 M 550.39,471.94 C 346.69,294.86 142.99,117.79 7,-0.43 M 550.39,471.94 C 407.7,347.9 265.02,223.87 7,-0.43 M 549.99,466.29 C 350.08,292.52 150.18,118.74 12.64,-0.82 M 549.99,466.29 C 353.01,295.06 156.04,123.83 12.64,-0.82 M 550.35,461.31 C 357.34,293.52 164.32,125.74 19.04,-0.56 M 550.35,461.31 C 406.18,335.98 262.01,210.66 19.04,-0.56 M 549.96,455.66 C 417.12,340.19 284.29,224.72 24.68,-0.95 M 549.96,455.66 C 399.43,324.81 248.91,193.96 24.68,-0.95 M 550.32,450.68 C 351.91,278.2 153.5,105.73 31.08,-0.69 M 550.32,450.68 C 385.36,307.28 220.41,163.89 31.08,-0.69 M 549.92,445.03 C 376.4,294.19 202.88,143.35 37.48,-0.43 M 549.92,445.03 C 392.81,308.46 235.7,171.88 37.48,-0.43 m 512.8,440.48 C 415.47,322.85 280.66,205.66 43.12,-0.83 M 550.28,440.05 C 361.5,275.94 172.72,111.84 43.12,-0.83 M 549.89,434.4 C 413.65,315.98 277.42,197.55 49.52,-0.56 M 549.89,434.4 C 424.2,325.14 298.5,215.88 49.52,-0.56 M 550.25,429.42 C 381.41,282.64 212.57,135.87 55.16,-0.96 M 550.25,429.42 C 432.21,326.81 314.17,224.2 55.16,-0.96 M 549.85,423.77 C 384.29,279.85 218.73,135.93 61.56,-0.7 M 549.85,423.77 C 438.66,327.11 327.46,230.45 61.56,-0.7 M 550.21,418.79 C 392.72,281.88 235.23,144.97 67.96,-0.44 M 550.21,418.79 C 428.44,312.93 306.66,207.07 67.96,-0.44 M 549.82,413.14 C 375.32,261.45 200.82,109.76 73.6,-0.83 M 549.82,413.14 C 394.41,278.05 239,142.95 73.6,-0.83 M 550.18,408.16 C 440.41,312.73 330.64,217.31 80,-0.57 M 550.18,408.16 C 369.83,251.38 189.48,94.6 80,-0.57 M 549.79,402.51 C 445.84,312.15 341.89,221.79 85.64,-0.96 M 549.79,402.51 C 401.25,273.39 252.72,144.28 85.64,-0.96 M 550.15,397.52 C 428.8,292.04 307.45,186.55 92.04,-0.7 M 550.15,397.52 C 397.37,264.72 244.6,131.92 92.04,-0.7 M 549.75,391.88 C 403.78,264.99 257.8,138.1 98.43,-0.44 M 549.75,391.88 C 385.23,248.87 220.72,105.86 98.43,-0.44 M 550.11,386.89 C 409.05,264.28 268,141.66 104.08,-0.84 M 550.11,386.89 C 444.43,295.02 338.74,203.15 104.08,-0.84 M 550.47,381.91 C 410.17,259.95 269.87,137.99 110.48,-0.57 M 550.47,381.91 C 419.14,267.74 287.81,153.58 110.48,-0.57 m 439.6,376.83 C 430.69,272.49 311.31,168.71 116.12,-0.97 M 550.08,376.26 C 393.22,239.92 236.37,103.57 116.12,-0.97 M 550.44,371.28 C 462.11,294.5 373.79,217.72 122.52,-0.71 M 550.44,371.28 C 403.53,243.58 256.63,115.87 122.52,-0.71 M 550.04,365.63 C 414.77,248.04 279.5,130.45 128.91,-0.45 M 550.04,365.63 C 462.74,289.74 375.43,213.85 128.91,-0.45 M 550.4,360.65 C 457.09,279.53 363.78,198.42 134.56,-0.84 M 550.4,360.65 C 465.91,287.2 381.41,213.75 134.56,-0.84 M 550.01,355 C 457.34,274.45 364.68,193.9 140.96,-0.58 M 550.01,355 C 465.06,281.16 380.11,207.31 140.96,-0.58 m 409.41,350.6 C 407.68,225.98 264.99,101.94 146.6,-0.97 M 550.37,350.02 C 402.91,221.84 255.46,93.66 146.6,-0.97 M 549.97,344.37 C 448.66,256.31 347.35,168.24 153,-0.71 M 549.97,344.37 C 459.28,265.53 368.58,186.69 153,-0.71 m 397.33,340.1 C 465.84,265.94 381.36,192.5 159.39,-0.45 M 550.33,339.39 C 394.29,203.74 238.24,68.09 159.39,-0.45 M 549.94,333.74 C 448.5,245.57 347.07,157.39 165.04,-0.85 m 384.9,334.59 C 446.61,243.92 343.28,154.1 165.04,-0.85 M 550.3,328.76 C 407.28,204.43 264.26,80.11 171.43,-0.58 M 550.3,328.76 C 452.65,243.87 355,158.98 171.43,-0.58 M 549.9,323.11 C 475.32,258.28 400.74,193.45 177.08,-0.98 M 549.9,323.11 C 415.98,206.7 282.06,90.28 177.08,-0.98 m 373.18,319.11 c -89.72,-78 -179.45,-156 -366.78,-318.85 M 550.26,318.13 C 412.19,198.1 274.12,78.08 183.48,-0.72 m 366.39,313.2 C 475.91,248.2 401.96,183.91 189.87,-0.46 m 360,312.94 C 454.44,229.53 359.01,146.57 189.87,-0.46 M 550.23,307.5 C 420.12,194.39 290.01,81.29 195.52,-0.85 M 550.23,307.5 C 417.74,192.33 285.26,77.16 195.52,-0.85 m 354.32,302.7 C 441.08,207.32 332.33,112.78 201.91,-0.59 M 549.84,301.85 C 416.48,185.93 283.12,70 201.91,-0.59 M 550.2,296.87 C 435.24,196.94 320.28,97 207.56,-0.98 M 550.2,296.87 C 430.25,192.6 310.31,88.34 207.56,-0.98 M 549.8,291.22 C 433.41,190.04 317.01,88.86 213.95,-0.72 M 549.8,291.22 C 467.9,220.03 386,148.84 213.95,-0.72 M 550.16,286.24 C 456.36,204.7 362.56,123.16 220.35,-0.46 m 329.81,286.7 C 421.54,174.43 292.91,62.61 220.35,-0.46 M 549.77,280.59 C 477.03,217.37 404.3,154.14 226,-0.86 M 549.77,280.59 C 481.92,221.61 414.07,162.63 226,-0.86 M 550.13,275.61 C 426.42,168.07 302.71,60.53 232.39,-0.59 m 317.74,276.2 C 467.5,203.78 384.87,131.95 232.39,-0.59 m 318.1,271.21 C 470.41,201.01 390.34,131.41 238.04,-0.99 M 550.49,270.62 C 432.99,168.48 315.49,66.34 238.04,-0.99 M 550.09,264.98 C 437.5,167.1 324.9,69.22 244.43,-0.73 M 550.09,264.98 C 455.41,182.67 360.72,100.36 244.43,-0.73 M 550.45,259.99 C 477.62,196.68 404.79,133.37 250.83,-0.47 M 550.45,259.99 C 469.03,189.21 387.6,118.42 250.83,-0.47 M 550.06,254.35 C 437.99,156.93 325.92,59.51 256.48,-0.86 M 550.06,254.35 C 440.99,159.54 331.93,64.73 256.48,-0.86 M 550.42,249.36 C 441.47,154.65 332.52,59.95 262.87,-0.6 M 550.42,249.36 C 447.49,159.88 344.56,70.41 262.87,-0.6 M 550.02,243.72 C 456.62,162.52 363.21,81.32 268.52,-0.99 m 281.5,244.71 C 476.73,180 403.43,116.29 268.52,-0.99 M 550.38,238.73 C 454.05,154.99 357.71,71.25 274.91,-0.73 M 550.38,238.73 C 459.84,160.02 369.29,81.31 274.91,-0.73 M 549.99,233.09 C 452.4,148.25 354.81,63.42 281.31,-0.47 M 549.99,233.09 C 476.27,169 402.55,104.92 281.31,-0.47 M 550.35,228.1 C 488.78,174.58 427.21,121.06 286.95,-0.87 M 550.35,228.1 C 494.81,179.82 439.26,131.53 286.95,-0.87 m 263,223.33 C 456.86,141.53 363.77,60.61 293.35,-0.6 m 256.6,223.06 C 474.43,156.81 398.91,91.16 293.35,-0.6 M 550.31,217.47 C 499.7,173.47 449.09,129.48 299,-1 M 550.31,217.47 C 483.93,159.76 417.54,102.05 299,-1 M 549.92,211.83 C 486.48,156.68 423.04,101.53 305.39,-0.74 M 549.92,211.83 C 480.53,151.51 411.14,91.19 305.39,-0.74 M 550.28,206.84 C 498.96,162.23 447.64,117.62 311.79,-0.48 M 550.28,206.84 C 483.25,148.57 416.21,90.3 311.79,-0.48 M 549.88,201.2 C 474.48,135.65 399.07,70.1 317.43,-0.87 M 549.88,201.2 C 459.42,122.56 368.96,43.92 317.43,-0.87 M 550.24,196.21 C 475.55,131.28 400.85,66.34 323.83,-0.61 M 550.24,196.21 C 485.28,139.74 420.31,83.26 323.83,-0.61 M 549.85,190.57 C 490.14,138.66 430.42,86.75 329.48,-1 M 549.85,190.57 C 497.02,144.65 444.2,98.72 329.48,-1 M 550.21,185.58 C 466.08,112.44 381.94,39.31 335.87,-0.74 M 550.21,185.58 C 498.8,140.89 447.39,96.2 335.87,-0.74 M 549.82,179.94 C 476.2,115.94 402.57,51.94 342.27,-0.48 M 549.82,179.94 C 498.46,135.29 447.1,90.65 342.27,-0.48 M 550.18,174.95 C 480.97,114.79 411.76,54.63 347.91,-0.87 M 550.18,174.95 C 483.27,116.79 416.36,58.62 347.91,-0.87 M 549.78,169.31 C 496.34,122.85 442.91,76.4 354.31,-0.61 M 549.78,169.31 C 489.73,117.1 429.67,64.9 354.31,-0.61 M 550.14,164.32 C 491.16,113.05 432.17,61.77 359.95,-1.01 M 550.14,164.32 C 496.22,117.45 442.3,70.57 359.95,-1.01 m 189.8,159.69 C 500.81,116.13 451.87,73.59 366.35,-0.75 m 183.4,159.43 C 495.33,111.37 440.92,64.07 366.35,-0.75 M 550.11,153.69 C 493.36,104.36 436.61,55.03 372.75,-0.48 M 550.11,153.69 C 504.96,114.44 459.81,75.19 372.75,-0.48 M 550.47,148.7 C 513.08,116.2 475.7,83.71 378.39,-0.88 M 550.47,148.7 C 485.71,92.41 420.94,36.11 378.39,-0.88 M 550.07,143.06 C 486.05,87.41 422.04,31.76 384.79,-0.62 M 550.07,143.06 C 494.98,95.17 439.88,47.27 384.79,-0.62 M 550.43,138.07 C 494.61,89.55 438.79,41.03 390.43,-1.01 m 160,139.08 C 504.12,97.81 457.8,57.55 390.43,-1.01 M 550.04,132.43 C 516.31,103.11 482.59,73.8 396.83,-0.75 M 550.04,132.43 C 512.96,100.2 475.88,67.97 396.83,-0.75 M 550.4,127.44 C 502.1,85.46 453.8,43.47 403.23,-0.49 M 550.4,127.44 C 511.82,93.9 473.24,60.37 403.23,-0.49 M 550,121.8 C 505.06,82.73 460.12,43.67 408.87,-0.88 M 550,121.8 C 516.75,92.89 483.5,63.99 408.87,-0.88 M 550.36,116.81 C 501.21,74.08 452.05,31.35 415.27,-0.62 M 550.36,116.81 C 509.39,81.19 468.42,45.58 415.27,-0.62 m 134.7,111.79 C 514.75,80.55 479.53,49.94 421.67,-0.36 m 128.3,111.53 C 524.06,88.65 498.15,66.13 421.67,-0.36 M 550.33,106.18 C 512.59,73.38 474.85,40.57 427.31,-0.76 M 550.33,106.18 C 512.85,73.6 475.38,41.03 427.31,-0.76 m 122.62,101.3 C 518.23,72.98 486.52,45.41 433.71,-0.49 M 549.93,100.54 C 507.91,64 465.88,27.47 433.71,-0.49 M 550.29,95.55 C 511.47,61.8 472.65,28.06 439.35,-0.89 M 550.29,95.55 C 512.5,62.69 474.7,29.83 439.35,-0.89 M 549.9,89.91 C 509.29,54.6 468.67,19.3 445.75,-0.63 M 549.9,89.91 C 511.56,56.58 473.22,23.26 445.75,-0.63 M 550.26,84.92 C 518.02,56.9 485.78,28.87 452.15,-0.37 m 98.11,85.29 C 514.07,53.46 477.88,22 452.15,-0.37 m 97.72,79.65 C 522.72,55.68 495.58,32.09 457.79,-0.76 m 92.08,80.04 C 530.75,62.66 511.63,46.04 457.79,-0.76 m 92.44,75.05 C 531.29,57.83 512.35,41.36 464.19,-0.5 m 86.04,74.79 C 521.9,49.67 493.57,25.04 464.19,-0.5 m 85.64,69.15 c -27.86,-24.22 -55.72,-48.44 -80,-69.54 m 80,69.54 c -23.94,-20.82 -47.89,-41.63 -80,-69.54 m 80.36,64.55 C 532.13,47.96 514.07,32.26 476.23,-0.63 m 73.96,64.29 C 532.08,47.92 513.97,32.17 476.23,-0.63 M 549.8,58.02 C 529.4,40.29 509,22.56 482.63,-0.37 M 549.8,58.02 C 523.27,34.95 496.73,11.89 482.63,-0.37 m 67.53,53.4 C 527.72,33.53 505.28,14.02 488.27,-0.77 m 61.89,53.8 C 530.26,35.74 510.37,18.44 488.27,-0.77 m 61.49,48.16 C 538.39,37.51 527.03,27.62 494.67,-0.5 m 55.09,47.89 C 534.37,34.01 518.98,20.63 494.67,-0.5 m 55.45,42.9 C 531.23,25.98 512.34,9.56 500.31,-0.9 m 49.81,43.3 C 537.78,31.68 525.45,20.95 500.31,-0.9 m 50.17,38.31 C 537.62,26.23 524.76,15.05 506.71,-0.64 m 43.77,38.05 C 538.67,27.14 526.85,16.87 506.71,-0.64 m 43.38,32.41 C 541.2,24.04 532.31,16.32 513.11,-0.38 m 36.98,32.15 C 539.18,22.29 528.28,12.81 513.11,-0.38 m 37.34,27.16 c -9.38,-8.15 -18.76,-16.31 -31.7,-27.55 m 31.7,27.55 C 540.4,18.05 530.35,9.31 518.75,-0.77 m 31.3,21.91 C 541.73,13.9 533.4,6.67 525.15,-0.51 m 24.9,21.65 c -5.41,-4.7 -10.82,-9.41 -24.9,-21.65 m 25.26,16.66 C 543.85,10.45 537.28,4.74 530.79,-0.9 m 19.62,17.05 C 544.45,10.97 538.49,5.79 530.79,-0.9 m 19.23,11.41 C 545,6.14 539.97,1.78 537.19,-0.64 m 12.83,11.15 C 545.5,6.58 540.98,2.66 537.19,-0.64 m 13.19,6.16 c -1.52,-1.32 -3.04,-2.64 -6.79,-5.9 m 6.79,5.9 c -2.35,-2.04 -4.7,-4.08 -6.79,-5.9"
       stroke="#1e1e1e"
       stroke-width="0.5"
       fill="none"
       id="path12" />
    <path
       d="M 0,0 C 186.19,0 372.38,0 550,0 M 0,0 c 192.55,0 385.11,0 550,0 m 0,0 c 0,176.95 0,353.89 0,868 M 550,0 c 0,334.26 0,668.52 0,868 m 0,0 c -132.39,0 -264.79,0 -550,0 m 550,0 c -153.65,0 -307.3,0 -550,0 m 0,0 C 0,601.96 0,335.92 0,0 M 0,868 C 0,573.35 0,278.71 0,0"
       stroke="#1e1e1e"
       stroke-width="1"
       fill="none"
       id="path13" />
  </g>
</svg>
